# xmcd
#
# Track frame offsets:
#	150
#	14982
#	32335
#	48665
#	64385
#	79732
#	94740
#	110885
#	130425
#	146142
#
# Disc length: 2158 seconds
#
# Revision: 6
# Processed by: cddbd v1.5.2PL0 Copyright (c) Steve Scherf et al.
# Submitted via: EZCDAudioConverter 6.0.5.1
#
DISCID=98086c0a
DTITLE=Exile - Still Standing
DYEAR=1990
DGENRE=Country
TTITLE0=Keep It In The Middle Of The Road
TTITLE1=Bad Blood
TTITLE2=Nobody's Talking
TTITLE3=I'm Still Standing
TTITLE4=There You Go
TTITLE5=Don't Hang Up (Girl)
TTITLE6=Show Me
TTITLE7=Yet
TTITLE8=For You
TTITLE9=Only A Woman
EXTD=
EXTT0=
EXTT1=
EXTT2=
EXTT3=
EXTT4=
EXTT5=
EXTT6=
EXTT7=
EXTT8=
EXTT9=
PLAYORDER=
